<svg width="150" height="150" viewBox="0 0 150 150" fill="none" xmlns="http://www.w3.org/2000/svg">
<circle cx="75" cy="75" r="75" fill="#FF6060" fill-opacity="0.1"/>
<path d="M97.7288 54.0909C97.7288 53.4884 97.2404 53 96.6379 53H86.6108C86.0083 53 85.5199 53.4884 85.5199 54.0909C85.5199 54.6935 86.0083 55.1819 86.6108 55.1819H94.1585L79.7331 70.0689C78.6092 71.2287 76.8327 71.3993 75.5087 70.4746L69.5393 66.3055C67.3096 64.7481 64.2405 65.0838 62.4001 67.086L53.2877 76.9995C52.8801 77.4431 52.9091 78.1334 53.3527 78.541C53.5622 78.7337 53.8268 78.8288 54.0907 78.8288C54.3853 78.8288 54.679 78.7101 54.8942 78.4762L64.0065 68.5627C65.1107 67.3615 66.9521 67.1601 68.2899 68.0944L74.2594 72.2635C76.4661 73.8046 79.4269 73.5203 81.3 71.5874L95.5469 56.8845V64.1181C95.5469 64.7207 96.0354 65.2091 96.6379 65.2091C97.2404 65.2091 97.7288 64.7207 97.7288 64.1181V54.0909Z" fill="#E80F0F"/>
<path d="M97.7289 96.4141V75.9591C97.7289 75.3566 97.2404 74.8682 96.6379 74.8682C96.0354 74.8682 95.547 75.3566 95.547 75.9591V95.3231H84.8773V81.0997C84.8773 80.4973 84.3889 80.0088 83.7864 80.0088C83.1839 80.0088 82.6955 80.4973 82.6955 81.0997V95.3231H72.0258V87.0771C72.0258 86.4747 71.5374 85.9862 70.9349 85.9862C70.3323 85.9862 69.8439 86.4747 69.8439 87.0771V95.3231H58.5316V87.125C58.5316 86.5226 58.0432 86.0341 57.4407 86.0341C56.8381 86.0341 56.3497 86.5226 56.3497 87.125V96.414C56.3497 97.0164 56.8381 97.5049 57.4407 97.5049H96.6379C97.2404 97.505 97.7289 97.0165 97.7289 96.4141Z" fill="#E80F0F"/>
</svg>
