<svg width="150" height="150" viewBox="0 0 150 150" fill="none" xmlns="http://www.w3.org/2000/svg">
<circle cx="75" cy="75" r="75" fill="#C548FF" fill-opacity="0.1"/>
<path d="M89 65.2217C89 61.5086 87.525 57.9477 84.8995 55.3222C82.274 52.6967 78.713 51.2217 75 51.2217C71.287 51.2217 67.726 52.6967 65.1005 55.3222C62.475 57.9477 61 61.5086 61 65.2217C61 81.555 54 86.2217 54 86.2217H96C96 86.2217 89 81.555 89 65.2217Z" stroke="#9113CD" stroke-width="2" stroke-linecap="round" stroke-linejoin="round"/>
<path d="M79.0367 95.5551C78.6265 96.2623 78.0377 96.8493 77.3293 97.2574C76.6208 97.6654 75.8176 97.8802 75.0001 97.8802C74.1825 97.8802 73.3793 97.6654 72.6709 97.2574C71.9624 96.8493 71.3736 96.2623 70.9634 95.5551" stroke="#9113CD" stroke-width="2" stroke-linecap="round" stroke-linejoin="round"/>
</svg>
