<svg width="150" height="150" viewBox="0 0 150 150" fill="none" xmlns="http://www.w3.org/2000/svg">
<circle cx="75" cy="75" r="75" fill="#F353AA" fill-opacity="0.1"/>
<path d="M85.9091 94.2727V89.9091C85.9091 87.5945 84.9896 85.3747 83.3529 83.738C81.7163 82.1013 79.4964 81.1818 77.1818 81.1818H59.7273C57.4127 81.1818 55.1928 82.1013 53.5562 83.738C51.9195 85.3747 51 87.5945 51 89.9091V94.2727" stroke="#D7187F" stroke-width="2" stroke-linecap="round" stroke-linejoin="round"/>
<path d="M68.4545 72.4545C73.2745 72.4545 77.1818 68.5472 77.1818 63.7273C77.1818 58.9073 73.2745 55 68.4545 55C63.6346 55 59.7273 58.9073 59.7273 63.7273C59.7273 68.5472 63.6346 72.4545 68.4545 72.4545Z" stroke="#D7187F" stroke-width="2" stroke-linecap="round" stroke-linejoin="round"/>
<path d="M99 94.2725V89.9088C98.9986 87.9752 98.355 86.0967 97.1703 84.5684C95.9855 83.0402 94.3268 81.9486 92.4545 81.4652" stroke="#D7187F" stroke-width="2" stroke-linecap="round" stroke-linejoin="round"/>
<path d="M83.7273 55.2834C85.6045 55.764 87.2684 56.8558 88.4567 58.3866C89.6449 59.9174 90.2898 61.8001 90.2898 63.7379C90.2898 65.6758 89.6449 67.5585 88.4567 69.0893C87.2684 70.62 85.6045 71.7118 83.7273 72.1925" stroke="#D7187F" stroke-width="2" stroke-linecap="round" stroke-linejoin="round"/>
</svg>
