<svg width="1140" height="374" fill="none" xmlns="http://www.w3.org/2000/svg"><path d="M725.577 0c-81.371 0-145.71 26.66-208.158 52.564-61.906 25.714-125.705 52.186-205.995 52.186-80.289 0-144.088-26.472-205.995-52.186C72.179 38.76 38.116 24.58 1.621 14.559L.269 17.206c36.225 10.02 70.287 24.013 103.268 37.816 62.177 25.904 126.787 52.564 208.158 52.564 81.37 0 145.71-26.66 208.157-52.564C581.759 29.307 645.558 2.836 725.847 2.836c80.29 0 144.359 26.47 205.995 52.186 62.177 25.904 126.788 52.564 208.158 52.564v-2.836c-80.29 0-144.359-26.472-205.995-52.186C871.287 26.66 806.948-.001 725.577-.001z" fill="#7587C7" fill-opacity=".02"/><path d="M725.578 19.097c-81.371 0-145.71 26.66-208.158 52.564-61.906 25.715-125.705 52.186-205.995 52.186-80.289 0-144.358-26.47-205.995-52.186C72.18 57.858 37.847 43.678 1.352 33.656L0 36.303C36.225 46.325 70.287 60.317 103.268 74.12c62.177 25.904 126.787 52.565 208.157 52.565 81.371 0 145.711-26.661 208.158-52.565 61.907-25.715 125.706-52.186 205.995-52.186s144.359 26.47 205.995 52.186c62.177 25.904 126.787 52.565 208.157 52.565v-2.837c-80.29 0-144.358-26.47-205.994-52.186-62.448-25.904-126.787-52.564-208.158-52.564z" fill="#7587C7" fill-opacity=".02"/><path d="M725.578 38.005c-81.371 0-145.71 26.66-208.158 52.565-61.906 25.714-125.705 52.186-205.995 52.186-80.289 0-144.088-26.472-205.995-52.186C72.18 76.767 37.847 62.586 1.352 52.564L0 55.212c36.225 10.02 70.287 24.013 103.268 37.816 62.177 25.904 126.787 52.564 208.157 52.564 81.371 0 145.711-26.66 208.158-52.564C581.49 67.313 645.289 40.84 725.578 40.84s144.359 26.472 205.995 52.187c62.177 25.904 126.787 52.564 208.157 52.564v-2.836c-80.29 0-144.358-26.472-205.994-52.186-62.448-25.904-126.787-52.565-208.158-52.565z" fill="#7587C7" fill-opacity=".02"/><path d="M725.577 57.101c-81.371 0-145.71 26.66-208.158 52.564-61.906 25.715-125.705 52.186-205.995 52.186-80.289 0-144.358-26.471-205.995-52.186C72.179 95.862 38.116 81.681 1.621 71.66L.269 74.307C36.494 84.33 70.556 98.32 103.537 112.123c62.177 25.904 126.787 52.565 208.158 52.565 81.37 0 145.71-26.661 208.157-52.565 61.907-25.715 125.706-52.186 205.995-52.186 80.29 0 144.359 26.471 205.995 52.186 62.177 25.904 126.788 52.565 208.158 52.565v-2.837c-80.29 0-144.359-26.471-205.995-52.186-62.718-25.904-127.057-52.564-208.428-52.564z" fill="#7587C7" fill-opacity=".02"/><path d="M725.577 76.01c-81.371 0-145.71 26.659-208.158 52.563-61.906 25.715-125.705 52.187-205.995 52.187-80.289 0-144.088-26.472-205.995-52.187-33.25-13.802-67.313-27.983-103.808-38.005L.269 93.215c36.225 10.022 70.287 24.014 103.268 37.816 62.177 25.904 126.787 52.565 208.158 52.565 81.37 0 145.71-26.661 208.157-52.565 61.907-25.714 125.706-52.186 205.995-52.186 80.29 0 144.359 26.472 205.995 52.186 62.177 25.904 126.788 52.565 208.158 52.565v-2.836c-80.29 0-144.359-26.472-205.995-52.187-62.718-25.715-127.057-52.564-208.428-52.564z" fill="#7587C7" fill-opacity=".02"/><path d="M725.577 95.107c-81.371 0-145.71 26.66-208.158 52.564-61.906 25.715-125.705 52.186-205.995 52.186-80.289 0-144.088-26.471-205.995-52.186-33.25-13.803-67.313-27.984-103.808-38.005l-1.352 2.647c36.225 10.021 70.287 24.013 103.268 37.816 62.177 25.904 126.787 52.564 208.158 52.564 81.37 0 145.71-26.66 208.157-52.564 61.907-25.715 125.706-52.186 205.995-52.186 80.29 0 144.359 26.471 205.995 52.186 62.177 25.904 126.788 52.564 208.158 52.564v-2.836c-80.29 0-144.359-26.471-205.995-52.186-62.718-25.904-127.057-52.564-208.428-52.564z" fill="#7587C7" fill-opacity=".02"/><path d="M725.578 114.203c-81.371 0-145.71 26.661-208.158 52.565-61.906 25.715-125.705 52.186-205.995 52.186-80.289 0-144.088-26.471-205.995-52.186-33.25-13.803-67.583-27.984-104.078-38.005L0 131.41c36.225 10.021 70.287 24.013 103.268 37.816 62.177 25.904 126.787 52.564 208.157 52.564 81.371 0 145.711-26.66 208.158-52.564 61.907-25.715 125.706-52.186 205.995-52.186s144.359 26.471 205.995 52.186c62.177 25.904 126.787 52.564 208.157 52.564v-2.836c-80.29 0-144.358-26.471-205.994-52.186-62.448-25.904-126.787-52.565-208.158-52.565z" fill="#7587C7" fill-opacity=".02"/><path d="M725.578 133.112c-81.371 0-145.71 26.66-208.158 52.564-61.906 25.715-125.705 52.186-205.995 52.186-80.289 0-144.088-26.471-205.995-52.186-33.25-13.803-67.583-27.984-104.078-38.005L0 150.318c36.225 10.021 70.287 24.013 103.268 37.816 62.177 25.904 126.787 52.564 208.157 52.564 81.371 0 145.711-26.66 208.158-52.564 61.907-25.715 125.706-52.186 205.995-52.186s144.359 26.471 205.995 52.186c62.177 25.904 126.787 52.564 208.157 52.564v-2.836c-80.29 0-144.358-26.471-205.994-52.186-62.448-25.715-126.787-52.564-208.158-52.564z" fill="#7587C7" fill-opacity=".02"/><path d="M725.577 152.208c-81.371 0-145.71 26.661-208.158 52.565-61.906 25.714-125.705 52.186-205.995 52.186-80.289 0-144.088-26.472-205.995-52.186-33.25-13.803-67.313-27.984-103.808-38.005l-1.352 2.647c36.225 10.021 70.287 24.013 103.268 37.816 62.177 25.904 126.787 52.564 208.158 52.564 81.37 0 145.71-26.66 208.157-52.564 61.907-25.715 125.706-52.186 205.995-52.186 80.29 0 144.359 26.471 205.995 52.186 62.177 25.904 126.788 52.564 208.158 52.564v-2.836c-80.29 0-144.359-26.472-205.995-52.186-62.718-25.904-127.057-52.565-208.428-52.565z" fill="#7587C7" fill-opacity=".02"/><path d="M725.578 171.308c-81.371 0-145.71 26.66-208.158 52.564-61.906 25.715-125.705 52.186-205.995 52.186-80.289 0-144.088-26.471-205.995-52.186-33.25-13.803-67.583-27.984-104.078-38.005L0 188.514c36.225 10.022 70.287 24.013 103.268 37.816 62.177 25.904 126.787 52.565 208.157 52.565 81.371 0 145.711-26.661 208.158-52.565 61.907-25.715 125.706-52.186 205.995-52.186s144.359 26.471 205.995 52.186c62.177 25.904 126.787 52.565 208.157 52.565v-2.837c-80.29 0-144.358-26.471-205.994-52.186-62.448-25.904-126.787-52.564-208.158-52.564z" fill="#7587C7" fill-opacity=".02"/><path d="M725.578 190.215c-81.371 0-145.71 26.66-208.158 52.564-61.906 25.715-125.705 52.187-205.995 52.187-80.289 0-144.088-26.472-205.995-52.187-33.25-13.802-67.583-27.983-104.078-38.005L0 207.421c36.225 10.022 70.287 24.014 103.268 37.817 62.177 25.903 126.787 52.564 208.157 52.564 81.371 0 145.711-26.661 208.158-52.564 61.907-25.715 125.706-52.187 205.995-52.187s144.359 26.472 205.995 52.187c62.177 25.903 126.787 52.564 208.157 52.564v-2.836c-80.29 0-144.358-26.472-205.994-52.187-62.448-25.904-126.787-52.564-208.158-52.564z" fill="#7587C7" fill-opacity=".02"/><path d="M725.577 209.311c-81.371 0-145.71 26.66-208.158 52.564-61.906 25.715-125.705 52.186-205.995 52.186-80.289 0-144.358-26.471-205.995-52.186-33.25-13.803-67.313-27.984-103.808-38.005l-1.352 2.647c36.225 10.021 70.287 24.013 103.268 37.816 62.177 25.904 126.787 52.564 208.158 52.564 81.37 0 145.71-26.66 208.157-52.564 61.907-25.715 125.706-52.186 205.995-52.186 80.29 0 144.359 26.471 205.995 52.186 62.177 25.904 126.788 52.564 208.158 52.564v-2.836c-80.29 0-144.359-26.471-205.995-52.186-62.718-25.904-127.057-52.564-208.428-52.564z" fill="#7587C7" fill-opacity=".02"/><path d="M725.577 228.219c-81.371 0-145.71 26.66-208.158 52.564-61.906 25.715-125.705 52.186-205.995 52.186-80.289 0-144.358-26.471-205.995-52.186-33.25-13.802-67.313-27.983-103.808-38.005l-1.352 2.647c36.225 10.022 70.287 24.014 103.268 37.816 62.177 25.904 126.787 52.565 208.158 52.565 81.37 0 145.71-26.661 208.157-52.565 61.907-25.714 125.706-52.186 205.995-52.186 80.29 0 144.359 26.472 205.995 52.186 62.177 25.904 126.788 52.565 208.158 52.565v-2.837c-80.29 0-144.359-26.471-205.995-52.186-62.718-25.715-127.057-52.564-208.428-52.564z" fill="#7587C7" fill-opacity=".02"/><path d="M725.577 247.317c-81.371 0-145.71 26.661-208.158 52.565-61.906 25.525-125.705 51.997-205.995 51.997-80.289 0-144.358-26.472-205.995-52.186-33.25-13.803-67.313-27.984-103.808-38.006l-1.352 2.648c36.225 10.021 70.287 24.013 103.268 37.816 62.177 25.904 126.787 52.564 208.158 52.564 81.37 0 145.71-26.66 208.157-52.564 61.907-25.715 125.706-52.187 205.995-52.187 80.29 0 144.359 26.472 205.995 52.187 62.177 25.904 126.788 52.564 208.158 52.564v-2.836c-80.29 0-144.359-26.472-205.995-52.186-62.718-25.715-127.057-52.376-208.428-52.376z" fill="#7587C7" fill-opacity=".02"/><path d="M725.577 266.413c-81.371 0-145.71 26.661-208.158 52.565-61.906 25.715-125.705 52.186-205.995 52.186-80.289 0-144.088-26.471-205.995-52.186-33.25-13.803-67.313-27.984-103.808-38.005L.269 283.62c36.225 10.021 70.287 24.013 103.268 37.816C165.714 347.34 230.324 374 311.695 374c81.37 0 145.71-26.66 208.157-52.564 61.907-25.715 125.706-52.186 205.995-52.186 80.29 0 144.359 26.471 205.995 52.186C994.019 347.34 1058.63 374 1140 374v-2.836c-80.29 0-144.359-26.471-205.995-52.186-62.718-25.904-127.057-52.565-208.428-52.565z" fill="#7587C7" fill-opacity=".02"/></svg>